<svg xmlns="http://www.w3.org/2000/svg" width="55.34" height="71.26" viewBox="0 0 55.34 71.26">
  <defs>
    <style>
      .cls-1 {
        fill: #db0007;
      }

      .cls-2 {
        fill: #ffbc0d;
      }
    </style>
  </defs>
  <title>Ресурс 1</title>
  <g id="Слой_2" data-name="Слой 2">
    <g id="Layer_1" data-name="Layer 1">
      <g>
        <path class="cls-1" d="M13.06,71.26A34.93,34.93,0,0,1,27,68.73a34.93,34.93,0,0,1,13.92,2.53l3-2.52C48.62,52.81,52.06,30,52.75,25.29H46.54c-1.12,3-6.35,14.6-19.56,14.6S8.54,28.24,7.42,25.29H1.21C1.9,30,5.35,52.82,10,68.74Z"/>
        <g>
          <path class="cls-2" d="M2.92,23.35h5a.78.78,0,0,1,.74.53C9.13,25.33,13.75,38,26.91,38S44.7,25.33,45.18,23.89a.78.78,0,0,1,.74-.53h5.26c1.53-4.73,3-8.92,4.16-13.86-1.84-.56-4.93-.06-5.1.64-.3,1.2-.49,1.82-.82,3a6.28,6.28,0,0,0-4-1.57,57.23,57.23,0,0,1-2,10.07A94.18,94.18,0,0,1,44.8,7.82c-1.9-.39-4.38-.07-5.15,1.3a76,76,0,0,0-1,7.65c-.19-5-.28-7.86-.71-13-2.41.19-4.65,1.31-5.07,2.8,0,.68.13,1.84.18,2.52A7.46,7.46,0,0,0,29,10.25c-.74,3.7-.76,5.89-1.78,9.67,0,0-.41-2.92,1-15.09.08-.73-2.63-2.58-4.55-2.83Q23,7.32,22.51,12.62q-.28-6.26-1-12.6C20.07-.24,16.94,2.37,17,3.09a124.46,124.46,0,0,1,.88,15.26c-.75-5.07-1.06-6.94-1.74-10-1.92.14-4.66,2.19-4.52,2.9a51.85,51.85,0,0,1,1,9.39C11.7,15.23,11,13.51,9.78,8,9.7,7.7,6.32,6.68,4.45,7.18A101.79,101.79,0,0,1,7.1,20C6,17.21,5,14.38,4.14,11.46,2.27,12-.1,15.58,0,15.91.9,18.66,1.84,20.72,2.92,23.35Z"/>
          <path class="cls-2" d="M31.38,44.65c-1.79,0-3.39,2.39-4.43,6.12-1-3.73-2.64-6.12-4.43-6.12-3.15,0-5.7,7.94-5.7,17.73h2.53c0-9.09,1.42-16.46,3.17-16.46s3.17,6.8,3.17,15.2h2.53c0-8.39,1.42-15.2,3.17-15.2s3.17,7.37,3.17,16.46h2.53C37.08,52.59,34.53,44.65,31.38,44.65Z"/>
        </g>
      </g>
    </g>
  </g>
</svg>
