<svg class="like_1" xmlns="http://www.w3.org/2000/svg" width="134.09" height="101.22" viewBox="0 0 134.09 101.22">
    <g>
      <path class="cls-1" d="M63,99.8,52.89,91.6a4.24,4.24,0,0,1,0-6.88l9.66-7.81a7.07,7.07,0,0,1,8.51,0L81.2,85.11a4.24,4.24,0,0,1,0,6.88L71.54,99.8A7.07,7.07,0,0,1,63,99.8Z"/>
      <path class="cls-1" d="M122.09,0H12A12,12,0,0,0,0,12V78.67a12,12,0,0,0,12,12H122.09a12,12,0,0,0,12-12V12A12,12,0,0,0,122.09,0ZM75.26,39C76,48,52,65.34,52,65.34S28.5,48,29.09,38.8c0-.18,0-.36,0-.55,0-7.46,5.76-13.5,12.87-13.5a12.64,12.64,0,0,1,10.25,5.37,12.65,12.65,0,0,1,10.25-5.37c7.11,0,12.87,6,12.87,13.5C75.3,38.49,75.27,38.73,75.26,39ZM105,63.43H97.29V41h-6V35.07H92c4,0,6.12-1.58,7.1-5.33h6Z"/>
    </g>
</svg>
